<?xml version="1.0" encoding="UTF-8"?>
<svg xmlns="http://www.w3.org/2000/svg" width="760" height="440" viewBox="0 0 760 440" role="img" aria-label="Preliminary Daphnet trunk benchmark AUROC and AUPRC">
<rect width="100%" height="100%" fill="#ffffff"/>
<text x="380" y="30" text-anchor="middle" font-family="sans-serif" font-size="20">Daphnet trunk benchmark discrimination metrics</text>
<line x1="80" y1="340.0" x2="720" y2="340.0" stroke="#d9d9d9" stroke-width="1"/>
<text x="68" y="344.0" text-anchor="end" font-family="sans-serif" font-size="12">0.00</text>
<line x1="80" y1="272.5" x2="720" y2="272.5" stroke="#d9d9d9" stroke-width="1"/>
<text x="68" y="276.5" text-anchor="end" font-family="sans-serif" font-size="12">0.25</text>
<line x1="80" y1="205.0" x2="720" y2="205.0" stroke="#d9d9d9" stroke-width="1"/>
<text x="68" y="209.0" text-anchor="end" font-family="sans-serif" font-size="12">0.50</text>
<line x1="80" y1="137.5" x2="720" y2="137.5" stroke="#d9d9d9" stroke-width="1"/>
<text x="68" y="141.5" text-anchor="end" font-family="sans-serif" font-size="12">0.75</text>
<line x1="80" y1="70.0" x2="720" y2="70.0" stroke="#d9d9d9" stroke-width="1"/>
<text x="68" y="74.0" text-anchor="end" font-family="sans-serif" font-size="12">1.00</text>
<rect x="180.0" y="151.4" width="54.0" height="188.6" fill="#35618f"/>
<text x="207.0" y="145.4" text-anchor="middle" font-family="sans-serif" font-size="11">0.699</text>
<rect x="240.0" y="128.2" width="54.0" height="211.8" fill="#c46b32"/>
<text x="267.0" y="122.2" text-anchor="middle" font-family="sans-serif" font-size="11">0.784</text>
<text x="240.0" y="365" text-anchor="middle" font-family="sans-serif" font-size="14">AUROC</text>
<rect x="500.0" y="289.9" width="54.0" height="50.1" fill="#35618f"/>
<text x="527.0" y="283.9" text-anchor="middle" font-family="sans-serif" font-size="11">0.186</text>
<rect x="560.0" y="277.8" width="54.0" height="62.2" fill="#c46b32"/>
<text x="587.0" y="271.8" text-anchor="middle" font-family="sans-serif" font-size="11">0.230</text>
<text x="560.0" y="365" text-anchor="middle" font-family="sans-serif" font-size="14">AUPRC</text>
<rect x="110" y="390" width="14" height="14" fill="#35618f"/>
<text x="131" y="402" font-family="sans-serif" font-size="12">logistic regression</text>
<rect x="370" y="390" width="14" height="14" fill="#c46b32"/>
<text x="391" y="402" font-family="sans-serif" font-size="12">random forest</text>
<text x="380" y="430" text-anchor="middle" font-family="sans-serif" font-size="11" fill="#555555">Preliminary, non-diagnostic research output</text>
</svg>
